<svg xmlns="http://www.w3.org/2000/svg" viewBox="0 0 404.79 452.63"><defs><style>.cls-1{fill:#dc0d1f;}</style></defs><g id="Layer_2" data-name="Layer 2"><g id="Layer_1-2" data-name="Layer 1"><path class="cls-1" d="M398.54,264c2.12,0,4.23.1,6.25.29V238H120v12.79H0c12.59,40.94,70.44,73.42,143.87,81.2a49.18,49.18,0,0,1-20.09,94.09,24.8,24.8,0,0,1-3.75-.19v26.71H404.79V426.4c-2,.19-4.13.29-6.25.29a81.36,81.36,0,0,1,0-162.71Z"/><path class="cls-1" d="M40.26,162.92a12.53,12.53,0,0,0,16.24,7l8.21-3.29,17.1,42.63a22,22,0,0,0,28.58,12.15L130,213.49A22,22,0,0,0,142.29,185l-17.1-42.64,241-96.65a12.47,12.47,0,0,0,6.95-16.24l-8.62-21.5a12.56,12.56,0,0,0-16.28-7l-241,96.66L90.17,55A22,22,0,0,0,61.55,42.76a43.15,43.15,0,0,0-24,56.11l9.19,22.93-8.2,3.29a12.6,12.6,0,0,0-6.91,16.33Z"/><path class="cls-1" d="M272.39,154c-2.38-5.52-5.54-4.56-9.69-2.69q-52.77,23.82-105.61,47.5l1.09,2.67Q213.38,182.23,268.6,163C273.56,161.29,274.5,158.91,272.39,154Z"/><path class="cls-1" d="M327.65,191.44c6.13-1.1,5.05-4.42,4.28-8.69-1.25-7-5.67-4.21-9.22-3.25q-56,15.09-111.9,30.38c.07,1,.15,2,.22,3C249.9,205.68,288.75,198.44,327.65,191.44Z"/></g></g></svg>
