<svg
  width="64"
  height="64"
  viewBox="0 0 64 64"
  xmlns="http://www.w3.org/2000/svg">
  <title>Open Collective</title>
  <path
    d="m 52.345,31.916 c 0,4.03 -1.17,7.895 -3.178,11.087 l 8.196,8.23 c 4.014,-5.375 6.523,-12.094 6.523,-19.318 0,-7.224 -2.51,-13.942 -6.523,-19.318 l -8.196,8.23 c 2.007,3.192 3.178,6.887 3.178,11.087 z"
    fill="currentColor"/>
  <path
  d="m 31.947,52.41 c -11.207,0 -20.406,-9.24 -20.406,-20.493 0,-11.253 9.2,-20.493 20.406,-20.493 4.182,0 7.86,1.176 11.04,3.36 l 8.196,-8.23 C 45.83,2.52 39.14,0 31.947,0 14.383,0 0,14.278 0,32.084 0,49.89 14.383,64 31.947,64 c 7.36,0 14.05,-2.52 19.403,-6.55 l -8.196,-8.23 c -3.178,2.016 -7.025,3.192 -11.207,3.192 z"
  fill="currentColor"/>
</svg>
